# xmcd
#
# Track frame offsets:
#	150
#	15054
#	34660
#	51826
#	69055
#	84035
#	101120
#	116195
#	132631
#	148441
#	166320
#	182567
#	205996
#	220400
#	232652
#	246930
#	266480
#	282403
#	299610
#
# Disc length: 4253 seconds
#
# Revision: 3
# Processed by: cddbd v1.5.1PL0 Copyright (c) Steve Scherf et al.
# Submitted via: audiograbber 1.83.01
#
DISCID=19109b13
DTITLE=1999-05 Country Radio - 1999-05 Country Radio
DYEAR=1999
DGENRE=Country
TTITLE0=Alabama - God Must Have Spent A Little More Time On You (Feat. 'N Sync)
TTITLE1=Trisha Yearwood - I'll Still Love You More
TTITLE2=Brooks and Dunn - South Of Santa Fe
TTITLE3=Kenny Chesney - You Had Me From Hello
TTITLE4=Jo Dee Messina - Lesson In Leavin'
TTITLE5=Mark Chesnutt - This Heartache Never Sleeps
TTITLE6=Jessica Andrews - I Will Be There For You
TTITLE7=David Ball - Watching My Baby Not Coming Back
TTITLE8=Trio - After The Gold Rush
TTITLE9=Doug Stone - Make Up In Love
TTITLE10=Sherrie Austin - Never Been Kissed
TTITLE11=Lee Roy Parnell - Nashville Casualty and Life
TTITLE12=Redmon and Vale - If I Had A Nickel (One Thin Dime)
TTITLE13=Gil Grand - I Already Fell (Remix)
TTITLE14=Kenny Rogers - The Greatest
TTITLE15=Confederate Railroad - Cowboy Cadillac (Dance Mix)
TTITLE16=T. Graham Brown - Never In A Million Tears
TTITLE17=Tareva Henderson - Looks Like A Job For A Woman
TTITLE18=Cledus T Judd - Everybody's Free (To Get Sunburned)
EXTD=
EXTT0=
EXTT1=
EXTT2=
EXTT3=
EXTT4=
EXTT5=
EXTT6=
EXTT7=
EXTT8=
EXTT9=
EXTT10=
EXTT11=
EXTT12=
EXTT13=
EXTT14=
EXTT15=
EXTT16=
EXTT17=
EXTT18=
PLAYORDER=
